<?xml version="1.0" standalone="no"?>
<!DOCTYPE svg PUBLIC "-//W3C//DTD SVG 1.0//EN" "http://www.w3.org/TR/2001/REC-SVG-20010904/DTD/svg10.dtd">
<svg xmlns="http://www.w3.org/2000/svg" xmlns:xlink="http://www.w3.org/1999/xlink" id="body_1" width="1024" height="768">

<g transform="matrix(0.768 0 0 0.768 128.00003 -0)">
	<g>
        <path d="M157.546 387.924L236.896 387.924L236.896 426.604L157.54599 426.604L157.546 387.924zM316.245 426.604L236.896 426.604zM236.896 387.924L267.279 387.924zM197.221 426.604L276.57 426.604L276.57 465.285L197.22101 465.285zM169.887 465.471L236.896 465.471L236.896 504.152L211.221 504.152" stroke="#474747" stroke-width="6" stroke-linecap="square" fill="none" />
        <path d="M236.896 465.471L316.245 465.471L316.245 504.152L236.896 504.152L236.896 465.471zM580.534 527.965L659.883 527.965L659.883 566.646L580.534 566.646zM739.233 566.646L659.883 566.646zM659.883 527.965L690.26697 527.965" stroke="#474747" stroke-width="6" stroke-linecap="square" fill="none" />
        <path d="M620.209 566.646L699.558 566.646L699.558 605.327L620.209 605.327L620.209 566.646zM592.875 605.512L659.883 605.512L659.883 644.193L634.209 644.193zM711.018 644.193L659.883 644.193L659.883 605.51196L725.951 605.51196zM321.799 242.963L444.941 242.963L444.941 342.785L321.799 342.785z" stroke="#474747" stroke-width="6" stroke-linecap="square" fill="none" />
        <path d="M338.784 319.669L361.346 287.002L384.68 315.91803" stroke="#474747" stroke-width="6" stroke-linecap="square" fill="none" />
        <path d="M376.117 305.307L407.59702 274.751L429.937 319.669" stroke="#474747" stroke-width="6" stroke-linecap="square" fill="none" />
        <path d="M367.893 295.123C 369.45 290.40598 373.894 287.00198 379.13202 287.00198C 383.44803 287.00198 387.22403 289.313 389.29102 292.76398L389.29102 292.76398L367.893 295.123zM765.022 410.195L589.881 410.195C 583.415 410.195 578.173 404.953 578.173 398.487C 578.173 392.021 583.415 386.779 589.881 386.779L589.881 386.779L765.022 386.779C 771.488 386.779 776.73 392.021 776.73 398.487C 776.729 404.954 771.488 410.195 765.022 410.195z" stroke="#474747" stroke-width="6" stroke-linecap="square" fill="none" />
        <path d="M704.82 386.78L653.537 386.78L642.87 321.341L715.48596 321.341L704.82 386.78zM633.18 302.339L725.487 302.339L725.487 321.341L633.18 321.341zM691.057 302.339L672.118 302.339C 666.966 284.201 662.438 265.19598 662.99396 246.66098C 663.657 237.77798 673.25397 230.25298 681.58795 230.25598C 689.92096 230.25298 699.51794 237.77798 700.18195 246.66098C 700.73694 265.197 696.2089 284.201 691.05695 302.339zM700.689 244.403L713.807 222.701C 716.33203 218.52501 722.01 217.629 725.697 220.826C 729.38403 224.02301 729.302 229.771 725.525 232.86101L725.525 232.86101L700.95 252.97202" stroke="#474747" stroke-width="6" stroke-linecap="square" fill="none" />
        <path d="M713.998 222.469L707.74896 203.075C 706.78894 200.094 708.74493 196.967 711.845 196.527C 713.31934 196.31787 714.81085 196.77011 715.9208 197.76282C 717.0307 198.75554 717.64594 200.18753 717.602 201.676L717.602 201.676L717.138 217.34999" stroke="#474747" stroke-width="6" stroke-linecap="square" fill="none" />
	</g>
    <path transform="matrix(-0.43819842 0.8988783 -0.8988783 -0.43819842 1209.1744 204.42224)"  d="M390.162 407.385L691.272 407.385L691.272 552.728L390.162 552.728L390.162 407.385z" stroke="none" fill="#77BA85" fill-rule="nonzero" />
    <path transform="matrix(-0.43819842 0.8988783 -0.8988783 -0.43819842 1209.1744 204.42224)"  d="M390.162 407.385L691.272 407.385L691.272 552.728L390.162 552.728L390.162 407.385z" stroke="#474747" stroke-width="6" stroke-linecap="square" fill="none" />
    <path d="M620.269 369.902L578.506 349.54C 570.576 365.80402 550.964 372.56 534.69995 364.63L534.69995 364.63L431.718 575.854L532.37695 624.931L635.36 413.708C 619.096 405.778 612.33997 386.16602 620.269 369.902z" stroke="none" fill="#F6F9EA" fill-rule="nonzero" />
    <path d="M620.269 369.902L578.506 349.54C 570.576 365.80402 550.964 372.56 534.69995 364.63L534.69995 364.63L431.718 575.854L532.37695 624.931L635.36 413.708C 619.096 405.778 612.33997 386.16602 620.269 369.902z" stroke="#474747" stroke-width="6" stroke-linecap="square" fill="none" />
    <path transform="matrix(0.8989011 0.43815148 -0.43815148 0.8989011 265.04852 -188.38574)"  d="M484.725 346.18L596.711 346.18L596.711 613.933L484.725 613.933L484.725 346.18z" stroke="#474747" stroke-width="6" stroke-linecap="square" fill="none" />
    <path d="M585.013 458.956C 585.013 468.43127 581.66296 476.51892 574.96295 483.21893C 568.26294 489.919 560.1753 493.269 550.7 493.26898C 541.22473 493.269 533.1371 489.919 526.4371 483.21893C 519.73706 476.51892 516.387 468.43127 516.387 458.956C 516.387 449.4807 519.73706 441.39307 526.4371 434.69305C 533.1371 427.99304 541.22473 424.643 550.7 424.643C 560.1753 424.643 568.26294 427.99304 574.96295 434.69305C 581.66296 441.39307 585.013 449.4807 585.013 458.956C 585.013 459.3553 585.00604 459.75446 584.9921 460.1535" stroke="none" fill="#77BA85" fill-rule="nonzero" />
    <path d="M585.013 458.956C 585.013 468.43127 581.66296 476.51892 574.96295 483.21893C 568.26294 489.919 560.1753 493.269 550.7 493.26898C 541.22473 493.269 533.1371 489.919 526.4371 483.21893C 519.73706 476.51892 516.387 468.43127 516.387 458.956C 516.387 449.4807 519.73706 441.39307 526.4371 434.69305C 533.1371 427.99304 541.22473 424.643 550.7 424.643C 560.1753 424.643 568.26294 427.99304 574.96295 434.69305C 581.66296 441.39307 585.013 449.4807 585.013 458.956C 585.013 459.3553 585.00604 459.75446 584.9921 460.1535" stroke="#474747" stroke-width="6" stroke-linecap="square" fill="none" />
    <path transform="matrix(-0.7733203 0.6340155 -0.6340155 -0.7733203 1400.1692 516.73724)"  d="M457.139 435.991L758.249 435.991L758.249 581.334L457.13904 581.334L457.139 435.991z" stroke="none" fill="#97CD78" fill-rule="nonzero" />
    <path transform="matrix(-0.7733203 0.6340155 -0.6340155 -0.7733203 1400.1692 516.73724)"  d="M457.139 435.991L758.249 435.991L758.249 581.334L457.13904 581.334L457.139 435.991z" stroke="#474747" stroke-width="6" stroke-linecap="square" fill="none" />
    <path d="M725.951 441.747L696.493 405.81702C 682.501 417.289 661.858 415.246 650.386 401.25403L650.386 401.25403L468.66498 550.244L539.667 636.844L721.388 487.854C 709.916 473.861 711.959 453.219 725.951 441.747z" stroke="none" fill="#F6F9EA" fill-rule="nonzero" />
    <path d="M725.951 441.747L696.493 405.81702C 682.501 417.289 661.858 415.246 650.386 401.25403L650.386 401.25403L468.66498 550.244L539.667 636.844L721.388 487.854C 709.916 473.861 711.959 453.219 725.951 441.747z" stroke="#474747" stroke-width="6" stroke-linecap="square" fill="none" />
    <path transform="matrix(0.63401544 0.7733203 -0.7733203 0.63401544 615.77313 -283.78644)"  d="M551.701 374.786L663.687 374.786L663.687 642.539L551.701 642.539L551.701 374.786z" stroke="#474747" stroke-width="6" stroke-linecap="square" fill="none" />
    <path d="M659.883 493.651C 659.883 503.12628 656.53296 511.21393 649.83295 517.91394C 643.13293 524.614 635.0453 527.964 625.57 527.964C 616.0947 527.964 608.0071 524.614 601.30707 517.91394C 594.60706 511.21393 591.257 503.12628 591.257 493.651C 591.257 484.17572 594.60706 476.08807 601.30707 469.38806C 608.0071 462.68805 616.0947 459.338 625.57 459.338C 635.0453 459.338 643.13293 462.68805 649.83295 469.38806C 656.53296 476.08807 659.883 484.17572 659.883 493.651C 659.883 494.0503 659.87604 494.44946 659.8621 494.8485" stroke="none" fill="#97CD78" fill-rule="nonzero" />
    <path d="M659.883 493.651C 659.883 503.12628 656.53296 511.21393 649.83295 517.91394C 643.13293 524.614 635.0453 527.964 625.57 527.964C 616.0947 527.964 608.0071 524.614 601.30707 517.91394C 594.60706 511.21393 591.257 503.12628 591.257 493.651C 591.257 484.17572 594.60706 476.08807 601.30707 469.38806C 608.0071 462.68805 616.0947 459.338 625.57 459.338C 635.0453 459.338 643.13293 462.68805 649.83295 469.38806C 656.53296 476.08807 659.883 484.17572 659.883 493.651C 659.883 494.0503 659.87604 494.44946 659.8621 494.8485" stroke="#474747" stroke-width="6" stroke-linecap="square" fill="none" />
    <path d="M629.416 457.724C 629.416 439.943 622.741 423.7 611.779 411.339L611.779 411.339L445.192 547.92L537.343 660.316L629.416 584.82697L629.416 457.724z" stroke="#474747" stroke-width="6" stroke-linecap="square" fill="#474747" fill-rule="nonzero" fill-opacity="0.31764707" />
    <path d="M169 748.723L831 748.723" stroke="#474747" stroke-width="6" stroke-linecap="square" fill="none" />
    <path d="M559.416 748.723L349.41602 748.723C 316.27902 748.723 289.41602 721.86005 289.41602 688.723L289.41602 688.723L289.41602 452.72302C 289.41602 419.58603 316.27902 392.72302 349.41602 392.72302L349.41602 392.72302L559.416 392.72302C 592.55304 392.72302 619.416 419.58603 619.416 452.72302L619.416 452.72302L619.416 688.723C 619.416 721.86005 592.55304 748.723 559.416 748.723z" stroke="none" fill="#F58870" fill-rule="nonzero" />
    <path d="M559.416 748.723L349.41602 748.723C 316.27902 748.723 289.41602 721.86005 289.41602 688.723L289.41602 688.723L289.41602 452.72302C 289.41602 419.58603 316.27902 392.72302 349.41602 392.72302L349.41602 392.72302L559.416 392.72302C 592.55304 392.72302 619.416 419.58603 619.416 452.72302L619.416 452.72302L619.416 688.723C 619.416 721.86005 592.55304 748.723 559.416 748.723z" stroke="none" fill="#F58870" fill-rule="nonzero" />
    <path d="M559.416 736.604L349.41602 736.604C 316.27902 736.604 289.41602 709.741 289.41602 676.604L289.41602 676.604L289.41602 688.724C 289.41602 721.861 316.27902 748.724 349.41602 748.724L349.41602 748.724L559.416 748.724C 592.55304 748.724 619.416 721.861 619.416 688.724L619.416 688.724L619.416 676.604C 619.416 709.741 592.55304 736.604 559.416 736.604z" stroke="none" fill="#DD7868" fill-rule="nonzero" />
    <path d="M559.416 392.723L349.41602 392.723C 316.27902 392.723 289.41602 417.405 289.41602 447.852L289.41602 447.852L289.41602 460.716C 289.41602 430.269 316.27902 405.587 349.41602 405.587L349.41602 405.587L559.416 405.587C 592.55304 405.587 619.416 430.269 619.416 460.716L619.416 460.716L619.416 447.852C 619.416 417.406 592.55304 392.723 559.416 392.723z" stroke="none" fill="#FFA399" fill-rule="nonzero" />
    <path d="M489.416 539.199L435.416 539.199C 425.47498 539.199 417.416 531.13995 417.416 521.199L417.416 521.199L417.416 410.723C 417.416 400.78198 425.47498 392.723 435.416 392.723L435.416 392.723L507.416 392.723L507.416 521.199C 507.416 531.13995 499.357 539.199 489.416 539.199z" stroke="#474747" stroke-width="6" stroke-linecap="square" fill="#474747" fill-rule="nonzero" fill-opacity="0.29803923" />
    <path d="M559.416 748.723L349.41602 748.723C 316.27902 748.723 289.41602 721.86005 289.41602 688.723L289.41602 688.723L289.41602 452.72302C 289.41602 419.58603 316.27902 392.72302 349.41602 392.72302L349.41602 392.72302L559.416 392.72302C 592.55304 392.72302 619.416 419.58603 619.416 452.72302L619.416 452.72302L619.416 688.723C 619.416 721.86005 592.55304 748.723 559.416 748.723z" stroke="#474747" stroke-width="6" stroke-linecap="square" fill="none" />
    <path d="M311.416 687.197L311.416 454.25C 311.416 433.263 328.429 416.25 349.416 416.25L349.416 416.25L559.416 416.25C 580.403 416.25 597.416 433.263 597.416 454.25L597.416 454.25L597.416 687.197C 597.416 708.184 580.403 725.197 559.416 725.197L559.416 725.197L349.41602 725.197C 328.42902 725.197 311.41602 708.184 311.41602 687.197L311.41602 687.197L311.416 687.197z" stroke="#474747" stroke-width="4" stroke-linecap="square" stroke-dasharray="13.958,9.97" fill="none" />
    <path d="M481.416 528.199L427.416 528.199C 417.47498 528.199 409.416 520.13995 409.416 510.19897L409.416 510.19897L409.416 388.19897C 409.416 378.25797 417.47498 370.19897 427.416 370.19897L427.416 370.19897L481.416 370.19897C 491.357 370.19897 499.416 378.25797 499.416 388.19897L499.416 388.19897L499.416 510.19897C 499.416 520.13995 491.357 528.199 481.416 528.199z" stroke="none" fill="#F79765" fill-rule="nonzero" />
    <path d="M481.416 519.866L427.416 519.866C 417.47498 519.866 409.416 511.80704 409.416 501.86603L409.416 501.86603L409.416 510.19904C 409.416 520.14 417.47498 528.19904 427.416 528.19904L427.416 528.19904L481.416 528.19904C 491.357 528.19904 499.416 520.14 499.416 510.19904L499.416 510.19904L499.416 501.86603C 499.416 511.80704 491.357 519.866 481.416 519.866z" stroke="none" fill="#E27444" fill-rule="nonzero" />
    <path d="M481.416 370.199L427.416 370.199C 417.47498 370.199 409.416 378.258 409.416 388.199L409.416 388.199L409.416 395C 409.416 385.059 417.47498 377 427.416 377L427.416 377L481.416 377C 491.357 377 499.416 385.059 499.416 395L499.416 395L499.416 388.199C 499.416 378.258 491.357 370.199 481.416 370.199z" stroke="none" fill="#FFB797" fill-rule="nonzero" />
    <path d="M481.416 528.199L427.416 528.199C 417.47498 528.199 409.416 520.13995 409.416 510.19897L409.416 510.19897L409.416 388.19897C 409.416 378.25797 417.47498 370.19897 427.416 370.19897L427.416 370.19897L481.416 370.19897C 491.357 370.19897 499.416 378.25797 499.416 388.19897L499.416 388.19897L499.416 510.19897C 499.416 520.13995 491.357 528.199 481.416 528.199z" stroke="#474747" stroke-width="6" stroke-linecap="square" fill="none" />
    <path d="M480.666 479.25C 480.66602 485.67032 478.3961 491.1504 473.85623 495.69025C 469.3164 500.2301 463.8363 502.5 457.416 502.5C 450.99567 502.5 445.5156 500.2301 440.97574 495.69025C 436.4359 491.1504 434.16602 485.67032 434.166 479.25C 434.16602 472.8297 436.4359 467.34964 440.97574 462.80975C 445.5156 458.26993 450.99567 456 457.416 456C 463.8363 456 469.3164 458.26993 473.85623 462.80975C 478.3961 467.34964 480.66602 472.8297 480.666 479.25C 480.66602 479.52057 480.6613 479.79105 480.65182 480.0614" stroke="#474747" stroke-width="6" stroke-linecap="square" fill="#474747" fill-rule="nonzero" fill-opacity="0.29803923" />
    <path d="M427.416 516.199C 424.107 516.199 421.416 513.508 421.416 510.19897L421.416 510.19897L421.416 388.19897C 421.416 384.88998 424.107 382.19897 427.416 382.19897L427.416 382.19897L481.416 382.19897C 484.72498 382.19897 487.416 384.88998 487.416 388.19897L487.416 388.19897L487.416 510.19897C 487.416 513.508 484.72498 516.199 481.416 516.199L481.416 516.199L427.416 516.199z" stroke="#474747" stroke-width="4" stroke-linecap="square" stroke-dasharray="9.839,11.807" fill="none" />
    <path d="M477.666 473.25C 477.66602 479.67032 475.3961 485.1504 470.85623 489.69025C 466.3164 494.2301 460.8363 496.5 454.416 496.5C 447.99567 496.5 442.5156 494.2301 437.97574 489.69025C 433.4359 485.1504 431.16602 479.67032 431.166 473.25C 431.16602 466.8297 433.4359 461.34964 437.97574 456.80975C 442.5156 452.26993 447.99567 450 454.416 450C 460.8363 450 466.3164 452.26993 470.85623 456.80975C 475.3961 461.34964 477.66602 466.8297 477.666 473.25C 477.66602 473.52057 477.6613 473.79105 477.65182 474.0614" stroke="none" fill="#8F6D5D" fill-rule="nonzero" />
    <path d="M477.666 473.25C 477.66602 479.67032 475.3961 485.1504 470.85623 489.69025C 466.3164 494.2301 460.8363 496.5 454.416 496.5C 447.99567 496.5 442.5156 494.2301 437.97574 489.69025C 433.4359 485.1504 431.16602 479.67032 431.166 473.25C 431.16602 466.8297 433.4359 461.34964 437.97574 456.80975C 442.5156 452.26993 447.99567 450 454.416 450C 460.8363 450 466.3164 452.26993 470.85623 456.80975C 475.3961 461.34964 477.66602 466.8297 477.666 473.25C 477.66602 473.52057 477.6613 473.79105 477.65182 474.0614" stroke="#474747" stroke-width="6" stroke-linecap="square" fill="none" />
    <path d="M464.22 461.33C 465.066 465.111 460.548 467.537 453.891 468.90997C 447.223 470.22797 441.233 470.45096 440.413 467.24698C 439.567 464.09998 444.08398 458.261 450.742 456.36597C 457.409 454.41696 463.39902 457.60696 464.22 461.32996L464.22 461.32996L464.22 461.33z" stroke="none" fill="#FFFCEE" fill-rule="nonzero" fill-opacity="0.6" />
    <path d="M788.31 748.723L718.285 748.723C 716.35767 748.723 714.5093 747.9574 713.1464 746.59454C 711.78357 745.2317 711.01794 743.3833 711.01794 741.456L711.01794 741.456L711.01794 736.6C 711.01794 734.6726 711.78357 732.8242 713.1464 731.46136C 714.5093 730.0985 716.35767 729.3329 718.285 729.33295L718.285 729.33295L788.31 729.33295C 790.2373 729.3329 792.0857 730.0985 793.44855 731.46136C 794.8114 732.8242 795.577 734.6726 795.577 736.6L795.577 736.6L795.577 741.456C 795.5773 743.38336 794.8117 745.23193 793.4488 746.5948C 792.08594 747.9577 790.23737 748.72327 788.31 748.723z" stroke="none" fill="#FDB740" fill-rule="nonzero" />
    <path d="M788.31 731.333L718.285 731.333C 716.35767 731.333 714.5093 732.09863 713.1464 733.4615C 711.78357 734.82434 711.01794 736.6727 711.01794 738.60004L711.01794 738.60004L711.01794 741.43304C 711.01794 739.50574 711.78357 737.65735 713.1464 736.2945C 714.5093 734.93164 716.35767 734.166 718.285 734.166L718.285 734.166L788.31 734.166C 790.2373 734.166 792.0857 734.93164 793.44855 736.2945C 794.8114 737.65735 795.577 739.50574 795.577 741.43304L795.577 741.43304L795.577 738.6C 795.5773 736.67255 794.8117 734.824 793.4488 733.4611C 792.08594 732.0982 790.23737 731.33264 788.31 731.33295L788.31 731.33295L788.31 731.333z" stroke="none" fill="#FFF3C0" fill-rule="nonzero" fill-opacity="0.8784314" />
    <path d="M788.31 746.534L718.285 746.534C 716.35767 746.53406 714.5093 745.76843 713.1464 744.4056C 711.78357 743.0427 711.01794 741.19434 711.01794 739.26697L711.01794 739.26697L711.01794 736.43396C 711.01794 738.3613 711.78357 740.2097 713.1464 741.5726C 714.5093 742.9354 716.35767 743.70105 718.285 743.701L718.285 743.701L788.31 743.701C 790.2373 743.70105 792.0857 742.9354 793.44855 741.5726C 794.8114 740.2097 795.577 738.3613 795.577 736.43396L795.577 736.43396L795.577 739.26697C 795.5773 741.1944 794.8117 743.04297 793.4488 744.4058C 792.08594 745.76874 790.23737 746.5343 788.31 746.534z" stroke="none" fill="#F29E25" fill-rule="nonzero" />
    <path d="M788.31 748.723L718.285 748.723C 716.35767 748.723 714.5093 747.9574 713.1464 746.59454C 711.78357 745.2317 711.01794 743.3833 711.01794 741.456L711.01794 741.456L711.01794 736.6C 711.01794 734.6726 711.78357 732.8242 713.1464 731.46136C 714.5093 730.0985 716.35767 729.3329 718.285 729.33295L718.285 729.33295L788.31 729.33295C 790.2373 729.3329 792.0857 730.0985 793.44855 731.46136C 794.8114 732.8242 795.577 734.6726 795.577 736.6L795.577 736.6L795.577 741.456C 795.5773 743.38336 794.8117 745.23193 793.4488 746.5948C 792.08594 747.9577 790.23737 748.72327 788.31 748.723z" stroke="#474747" stroke-width="6" stroke-linecap="square" fill="none" />
    <path d="M799.964 729.333L729.93896 729.333C 728.0116 729.333 726.1632 728.5674 724.80035 727.2045C 723.4375 725.8417 722.6719 723.9933 722.67194 722.066L722.67194 722.066L722.67194 717.20996C 722.6719 715.2826 723.4375 713.4342 724.80035 712.07135C 726.1632 710.7085 728.0116 709.9429 729.93896 709.94293L729.93896 709.94293L799.964 709.94293C 801.89136 709.9429 803.73975 710.7085 805.1026 712.07135C 806.46545 713.4342 807.2311 715.2826 807.231 717.20996L807.231 717.20996L807.231 722.066C 807.2311 723.9933 806.46545 725.8417 805.1026 727.2045C 803.73975 728.5674 801.89136 729.333 799.964 729.333z" stroke="none" fill="#FDB740" fill-rule="nonzero" />
    <path d="M799.964 711.943L729.93896 711.943C 728.0116 711.943 726.1632 712.7086 724.80035 714.0715C 723.4375 715.4343 722.6719 717.2827 722.67194 719.21L722.67194 719.21L722.67194 722.043C 722.6719 720.1157 723.4375 718.26733 724.80035 716.9045C 726.1632 715.5416 728.0116 714.776 729.93896 714.776L729.93896 714.776L799.964 714.776C 801.89136 714.776 803.73975 715.5416 805.1026 716.9045C 806.46545 718.26733 807.2311 720.1157 807.231 722.043L807.231 722.043L807.231 719.21C 807.2305 715.1968 803.9773 711.94354 799.964 711.943z" stroke="none" fill="#FFF3C0" fill-rule="nonzero" fill-opacity="0.8784314" />
    <path d="M799.964 727.144L729.93896 727.144C 728.0116 727.14404 726.1632 726.3784 724.80035 725.01556C 723.4375 723.6527 722.6719 721.8043 722.67194 719.87695L722.67194 719.87695L722.67194 717.04395C 722.6719 718.9713 723.4375 720.8197 724.80035 722.18256C 726.1632 723.5454 728.0116 724.31104 729.93896 724.311L729.93896 724.311L799.964 724.311C 801.89136 724.31104 803.73975 723.5454 805.1026 722.18256C 806.46545 720.8197 807.2311 718.9713 807.231 717.04395L807.231 717.04395L807.231 719.87695C 807.2311 721.8043 806.46545 723.6527 805.1026 725.01556C 803.73975 726.3784 801.89136 727.14404 799.964 727.144z" stroke="none" fill="#F29E25" fill-rule="nonzero" />
    <path d="M799.964 729.333L729.93896 729.333C 728.0116 729.333 726.1632 728.5674 724.80035 727.2045C 723.4375 725.8417 722.6719 723.9933 722.67194 722.066L722.67194 722.066L722.67194 717.20996C 722.6719 715.2826 723.4375 713.4342 724.80035 712.07135C 726.1632 710.7085 728.0116 709.9429 729.93896 709.94293L729.93896 709.94293L799.964 709.94293C 801.89136 709.9429 803.73975 710.7085 805.1026 712.07135C 806.46545 713.4342 807.2311 715.2826 807.231 717.20996L807.231 717.20996L807.231 722.066C 807.2311 723.9933 806.46545 725.8417 805.1026 727.2045C 803.73975 728.5674 801.89136 729.333 799.964 729.333z" stroke="#474747" stroke-width="6" stroke-linecap="square" fill="none" />
    <path d="M788.31 709.943L718.285 709.943C 716.35767 709.943 714.5093 709.17737 713.1464 707.8145C 711.78357 706.45166 711.01794 704.6033 711.01794 702.67596L711.01794 702.67596L711.01794 697.81995C 711.01794 695.8926 711.78357 694.0442 713.1464 692.68134C 714.5093 691.3185 716.35767 690.55286 718.285 690.5529L718.285 690.5529L788.31 690.5529C 790.2373 690.55286 792.0857 691.3185 793.44855 692.68134C 794.8114 694.0442 795.577 695.8926 795.577 697.81995L795.577 697.81995L795.577 702.67596C 795.5773 704.60333 794.8117 706.4519 793.4488 707.81476C 792.08594 709.1777 790.23737 709.94324 788.31 709.943z" stroke="none" fill="#FDB740" fill-rule="nonzero" />
    <path d="M788.31 692.553L718.285 692.553C 716.35767 692.553 714.5093 693.3186 713.1464 694.68146C 711.78357 696.0443 711.01794 697.8927 711.01794 699.82L711.01794 699.82L711.01794 702.653C 711.01794 700.7257 711.78357 698.8773 713.1464 697.51447C 714.5093 696.1516 716.35767 695.386 718.285 695.386L718.285 695.386L788.31 695.386C 790.2373 695.386 792.0857 696.1516 793.44855 697.51447C 794.8114 698.8773 795.577 700.7257 795.577 702.653L795.577 702.653L795.577 699.82C 795.5773 697.89264 794.8117 696.04407 793.4488 694.6812C 792.08594 693.3183 790.23737 692.55273 788.31 692.553z" stroke="none" fill="#FFF3C0" fill-rule="nonzero" fill-opacity="0.8784314" />
    <path d="M788.31 707.754L718.285 707.754C 716.35767 707.754 714.5093 706.9884 713.1464 705.62555C 711.78357 704.2627 711.01794 702.4143 711.01794 700.487L711.01794 700.487L711.01794 697.654C 711.01794 699.5813 711.78357 701.4297 713.1464 702.79254C 714.5093 704.1554 716.35767 704.921 718.285 704.921L718.285 704.921L788.31 704.921C 790.2373 704.921 792.0857 704.1554 793.44855 702.79254C 794.8114 701.4297 795.577 699.5813 795.577 697.654L795.577 697.654L795.577 700.487C 795.5773 702.41437 794.8117 704.26294 793.4488 705.6258C 792.08594 706.9887 790.23737 707.7543 788.31 707.754z" stroke="none" fill="#F29E25" fill-rule="nonzero" />
    <path d="M788.31 709.943L718.285 709.943C 716.35767 709.943 714.5093 709.17737 713.1464 707.8145C 711.78357 706.45166 711.01794 704.6033 711.01794 702.67596L711.01794 702.67596L711.01794 697.81995C 711.01794 695.8926 711.78357 694.0442 713.1464 692.68134C 714.5093 691.3185 716.35767 690.55286 718.285 690.5529L718.285 690.5529L788.31 690.5529C 790.2373 690.55286 792.0857 691.3185 793.44855 692.68134C 794.8114 694.0442 795.577 695.8926 795.577 697.81995L795.577 697.81995L795.577 702.67596C 795.5773 704.60333 794.8117 706.4519 793.4488 707.81476C 792.08594 709.1777 790.23737 709.94324 788.31 709.943z" stroke="#474747" stroke-width="6" stroke-linecap="square" fill="none" />
    <path d="M709.059 695.28L661.224 746.42004C 659.90735 747.82776 658.08545 748.6548 656.15906 748.7191C 654.23267 748.78345 652.3596 748.07983 650.952 746.76306L650.952 746.76306L647.406 743.44604C 645.9983 742.1294 645.17126 740.3075 645.10693 738.3811C 645.0426 736.4547 645.7462 734.58167 647.063 733.1741L647.063 733.1741L694.898 682.03406C 696.21466 680.62634 698.03656 679.7993 699.96295 679.735C 701.8894 679.67065 703.7624 680.37427 705.17 681.69104L705.17 681.69104L708.716 685.00806C 711.647 687.75 711.80054 692.34863 709.059 695.28z" stroke="none" fill="#FDB740" fill-rule="nonzero" />
    <path d="M696.358 683.401L648.52295 734.541C 645.78143 737.4724 645.935 742.07104 648.86597 744.813L648.86597 744.813L650.93494 746.748C 649.5272 745.43134 648.7002 743.60944 648.63586 741.68304C 648.57153 739.7566 649.27515 737.8836 650.5919 736.476L650.5919 736.476L698.42694 685.336C 701.1689 682.405 705.7675 682.25146 708.6989 684.993L708.6989 684.993L706.62994 683.058C 703.69855 680.31647 699.0999 680.47003 696.358 683.401z" stroke="none" fill="#FFF3C0" fill-rule="nonzero" fill-opacity="0.8784314" />
    <path d="M707.46 693.785L659.625 744.925C 658.30835 746.3327 656.48645 747.1597 654.56006 747.22406C 652.63367 747.2884 650.7606 746.5848 649.353 745.268L649.353 745.268L647.28406 743.333C 650.21545 746.0745 654.8141 745.92096 657.556 742.99L657.556 742.99L705.39105 691.85C 708.13257 688.9186 707.979 684.31995 705.04803 681.578L705.04803 681.578L707.117 683.513C 710.048 686.25494 710.20154 690.8536 707.46 693.785z" stroke="none" fill="#F29E25" fill-rule="nonzero" />
    <path d="M709.059 695.28L661.224 746.42004C 659.90735 747.82776 658.08545 748.6548 656.15906 748.7191C 654.23267 748.78345 652.3596 748.07983 650.952 746.76306L650.952 746.76306L647.406 743.44604C 645.9983 742.1294 645.17126 740.3075 645.10693 738.3811C 645.0426 736.4547 645.7462 734.58167 647.063 733.1741L647.063 733.1741L694.898 682.03406C 696.21466 680.62634 698.03656 679.7993 699.96295 679.735C 701.8894 679.67065 703.7624 680.37427 705.17 681.69104L705.17 681.69104L708.716 685.00806C 711.647 687.75 711.80054 692.34863 709.059 695.28z" stroke="#474747" stroke-width="6" stroke-linecap="square" fill="none" />
</g>
</svg>